<svg id="svg" version="1.1" width="400" height="405.88235294117646" viewBox="0 0 400 405.88235294117646" xmlns="http://www.w3.org/2000/svg" xmlns:xlink="http://www.w3.org/1999/xlink"><g id="svgg"><path id="path1" d="M0.000 202.800 L 0.000 405.600 200.000 405.600 L 400.000 405.600 400.000 202.800 L 400.000 0.000 200.000 0.000 L 0.000 0.000 0.000 202.800 M384.100 21.747 C 384.767 21.917,384.796 30.899,384.700 205.263 L 384.600 388.600 201.200 388.600 L 17.800 388.600 17.800 205.200 L 17.800 21.800 19.200 21.600 C 20.929 21.353,383.128 21.499,384.100 21.747 M286.300 302.811 C 285.693 303.182,285.600 303.908,285.600 308.246 C 285.600 314.753,285.563 314.817,282.006 314.519 C 274.430 313.884,269.854 320.039,270.645 329.800 C 271.422 339.389,277.719 343.773,284.549 339.479 L 286.499 338.253 288.453 339.352 C 292.608 341.688,295.117 339.662,293.869 334.979 C 293.308 332.872,293.200 330.335,293.200 319.195 C 293.200 302.876,293.262 303.117,288.905 302.605 C 287.831 302.479,286.695 302.569,286.300 302.811 M205.600 304.681 C 194.616 306.572,189.124 321.726,195.077 333.714 C 199.183 341.981,212.074 343.755,219.310 337.049 C 222.558 334.038,218.621 329.835,214.541 331.958 C 208.600 335.051,203.886 333.654,202.350 328.345 C 201.684 326.044,201.659 318.264,202.311 316.118 C 204.310 309.532,212.020 309.905,212.942 316.633 C 213.403 319.993,217.080 320.982,219.631 318.431 C 224.733 313.329,215.877 303.464,207.084 304.454 C 206.818 304.484,206.150 304.586,205.600 304.681 M89.517 305.157 C 86.794 305.556,87.054 304.448,85.772 321.101 C 84.159 342.048,83.938 340.400,88.366 340.400 C 90.219 340.400,91.665 340.219,91.820 339.967 C 92.158 339.420,92.669 332.558,93.016 323.900 C 93.164 320.215,93.410 317.200,93.564 317.200 C 94.060 317.200,95.459 321.888,97.366 329.939 C 98.639 335.312,98.910 335.600,102.688 335.600 C 107.325 335.600,107.042 336.040,109.756 324.626 C 112.153 314.548,112.428 315.058,113.134 330.901 C 113.574 340.774,113.398 340.400,117.606 340.400 C 121.765 340.400,121.661 340.822,120.596 328.200 C 118.949 308.689,118.700 306.175,118.386 305.844 C 117.258 304.656,109.324 304.742,108.258 305.954 C 107.700 306.588,104.963 317.090,103.368 324.716 C 103.055 326.213,102.589 325.432,101.818 322.121 C 98.398 307.419,97.895 305.732,96.839 305.436 C 95.468 305.053,91.307 304.894,89.517 305.157 M133.539 314.555 C 124.619 316.958,122.644 334.399,130.711 339.533 C 135.186 342.381,146.800 340.638,146.800 337.118 C 146.800 334.417,145.097 333.375,142.106 334.244 C 137.966 335.448,134.400 334.192,134.400 331.530 C 134.400 330.253,133.727 330.366,141.932 330.259 C 147.166 330.191,147.391 330.053,147.803 326.655 C 148.843 318.089,141.993 312.278,133.539 314.555 M230.400 314.822 C 224.685 315.899,224.247 316.422,225.853 320.265 C 226.495 321.801,227.146 321.911,230.164 320.996 C 234.195 319.773,237.200 320.617,237.200 322.973 C 237.200 324.114,236.548 324.400,233.944 324.400 C 226.645 324.400,222.047 329.899,224.214 336.038 C 225.910 340.846,231.277 342.428,236.700 339.718 L 238.800 338.669 241.034 339.800 C 244.899 341.755,247.560 339.577,246.252 335.528 C 245.770 334.035,245.600 331.971,245.600 327.618 C 245.600 315.409,242.249 312.589,230.400 314.822 M305.087 314.420 C 295.863 316.693,295.898 326.977,305.142 330.413 C 308.296 331.586,309.200 332.250,309.200 333.395 C 309.200 335.267,306.224 335.539,302.274 334.030 C 299.855 333.106,298.770 333.716,297.989 336.438 C 297.513 338.098,298.455 339.058,301.515 340.028 C 316.327 344.725,324.686 330.965,310.926 324.535 C 304.564 321.562,305.104 319.535,311.940 320.726 C 315.570 321.359,315.697 321.355,316.244 320.607 C 317.127 319.399,317.621 317.186,317.187 316.376 C 316.369 314.846,308.512 313.576,305.087 314.420 M153.300 314.846 C 152.506 315.663,152.586 339.324,153.385 339.988 C 153.710 340.258,155.241 340.493,156.831 340.517 C 160.859 340.579,160.800 340.709,160.800 331.750 C 160.800 323.397,160.965 322.672,163.019 321.994 C 165.886 321.047,166.166 321.824,166.400 331.392 C 166.631 340.827,166.469 340.459,170.384 340.447 C 174.564 340.434,174.400 340.787,174.400 331.773 C 174.400 323.239,174.642 322.395,177.265 321.780 C 179.603 321.232,180.000 322.380,180.002 329.700 C 180.005 339.127,180.621 340.600,184.560 340.600 C 188.042 340.600,188.849 339.779,188.600 336.490 C 188.488 335.010,188.325 330.737,188.238 326.993 C 187.963 315.159,184.053 311.638,176.064 316.030 L 173.682 317.340 172.451 316.304 C 169.763 314.042,166.323 313.898,162.766 315.897 C 161.363 316.686,160.650 316.886,160.259 316.600 C 158.047 314.982,157.338 314.658,155.677 314.505 C 154.468 314.393,153.622 314.515,153.300 314.846 M251.676 315.319 C 250.412 316.664,250.180 318.425,251.052 320.045 C 251.682 321.214,251.802 322.632,251.929 330.400 C 252.100 340.886,251.904 340.400,255.969 340.400 C 260.154 340.400,260.000 340.709,260.000 332.300 C 260.000 322.945,260.440 322.000,264.793 322.000 C 266.812 322.000,266.849 321.978,267.611 320.300 C 270.210 314.574,265.618 312.048,260.607 316.448 C 259.591 317.340,258.971 317.631,258.633 317.374 C 254.628 314.326,253.048 313.859,251.676 315.319 M139.455 321.028 C 140.781 323.052,140.079 324.186,137.411 324.323 C 134.746 324.459,133.970 323.936,134.298 322.223 C 134.773 319.739,138.104 318.966,139.455 321.028 M284.795 321.422 C 286.566 323.191,285.612 332.760,283.558 333.822 C 280.062 335.629,277.959 331.404,278.976 324.618 C 279.510 321.057,282.684 319.314,284.795 321.422 M237.012 330.270 C 237.851 331.109,237.547 333.557,236.509 334.316 C 234.407 335.855,231.336 334.060,231.971 331.663 C 232.424 329.951,235.769 329.027,237.012 330.270 " stroke="none" fill="#fafbfb" fill-rule="evenodd"></path><path id="path2" d="M108.456 69.900 C 107.622 70.602,105.985 80.959,106.008 85.395 C 106.013 86.278,105.745 89.160,105.413 91.800 C 105.081 94.440,104.531 99.570,104.190 103.200 C 103.850 106.830,103.391 111.420,103.170 113.400 C 102.950 115.380,102.591 118.800,102.372 121.000 C 102.153 123.200,101.616 128.600,101.179 133.000 C 100.741 137.400,100.115 143.250,99.787 146.000 C 99.144 151.388,98.750 155.295,97.809 165.600 C 97.478 169.230,97.116 172.560,97.005 173.000 C 96.894 173.440,96.614 176.407,96.382 179.594 C 96.151 182.780,95.801 186.110,95.605 186.994 C 95.409 187.877,95.051 190.940,94.810 193.800 C 94.570 196.660,94.117 201.340,93.805 204.200 C 92.530 215.882,91.415 226.996,90.587 236.291 C 90.268 239.861,89.831 243.551,89.614 244.491 C 89.397 245.431,89.216 247.190,89.211 248.400 C 89.206 249.610,88.935 252.760,88.609 255.400 C 88.009 260.258,86.862 270.529,86.509 274.204 C 86.358 275.776,86.481 276.411,87.077 277.148 L 87.838 278.087 102.819 278.036 C 117.003 277.987,117.834 277.944,118.437 277.225 C 119.214 276.301,119.865 271.288,121.817 251.200 C 122.106 248.230,122.529 244.180,122.758 242.200 C 123.196 238.403,123.687 233.554,124.602 224.000 C 125.221 217.539,125.726 212.717,126.590 205.000 C 126.911 202.140,127.276 198.132,127.401 196.093 C 127.527 194.054,127.799 191.444,128.005 190.293 C 128.212 189.142,128.832 183.520,129.384 177.800 C 129.935 172.080,130.654 165.060,130.981 162.200 C 131.308 159.340,131.775 154.930,132.019 152.400 C 132.264 149.870,132.705 145.460,133.000 142.600 C 133.295 139.740,133.738 135.150,133.984 132.400 C 134.230 129.650,134.688 125.510,135.002 123.200 C 135.316 120.890,135.772 117.119,136.016 114.820 C 136.881 106.635,138.142 107.593,140.725 118.400 C 141.172 120.270,142.108 123.960,142.805 126.600 C 143.502 129.240,145.050 135.270,146.244 140.000 C 147.439 144.730,148.680 149.410,149.002 150.400 C 149.608 152.261,151.614 159.978,153.578 168.000 C 154.198 170.530,155.098 174.040,155.579 175.800 C 156.060 177.560,156.894 180.710,157.431 182.800 C 157.968 184.890,158.779 187.950,159.231 189.600 C 159.684 191.250,160.309 193.590,160.619 194.800 C 160.929 196.010,161.979 199.970,162.952 203.600 C 163.925 207.230,164.810 210.650,164.918 211.200 C 165.102 212.140,166.732 218.419,168.188 223.800 C 169.422 228.362,171.274 235.416,172.390 239.800 C 173.542 244.327,175.774 252.916,178.264 262.400 C 179.043 265.370,180.176 269.747,180.781 272.126 C 182.441 278.655,180.972 278.258,202.486 278.000 C 221.401 277.773,220.115 278.027,220.999 274.343 C 221.282 273.164,222.187 269.680,223.009 266.600 C 223.831 263.520,225.212 258.300,226.078 255.000 C 228.380 246.223,230.539 238.028,231.925 232.800 C 232.596 230.270,233.778 225.770,234.551 222.800 C 236.440 215.542,238.865 206.416,241.194 197.800 C 241.670 196.040,242.206 193.880,242.385 193.000 C 242.564 192.120,243.439 188.790,244.329 185.600 C 245.862 180.106,247.351 174.445,250.012 164.000 C 250.656 161.470,251.641 157.780,252.199 155.800 C 252.758 153.820,254.373 147.700,255.788 142.200 C 257.203 136.700,259.016 129.770,259.816 126.800 C 261.289 121.330,261.601 120.166,263.269 113.911 C 264.789 108.216,266.077 107.762,266.582 112.745 C 266.708 113.985,267.077 117.520,267.403 120.600 C 267.980 126.064,268.285 129.121,269.395 140.600 C 269.693 143.680,270.125 147.820,270.356 149.800 C 270.587 151.780,271.055 156.370,271.398 160.000 C 272.008 166.466,272.477 170.992,273.203 177.400 C 273.402 179.160,273.682 182.130,273.825 184.000 C 273.968 185.870,274.335 189.110,274.640 191.200 C 274.946 193.290,275.195 196.080,275.195 197.400 C 275.195 198.720,275.453 201.780,275.770 204.200 C 276.087 206.620,276.545 210.670,276.789 213.200 C 277.033 215.730,277.585 221.130,278.017 225.200 C 278.448 229.270,279.066 235.481,279.391 239.002 C 279.715 242.522,280.158 246.752,280.376 248.402 C 280.593 250.051,280.966 253.816,281.204 256.769 C 281.443 259.722,281.730 262.287,281.843 262.469 C 281.955 262.651,282.205 265.302,282.398 268.361 C 282.796 274.689,283.297 277.010,284.387 277.593 C 284.863 277.848,290.625 278.000,299.774 278.000 C 317.665 278.000,316.594 278.426,315.599 271.707 C 315.379 270.218,314.743 264.500,314.185 259.000 C 313.628 253.500,312.918 246.660,312.606 243.800 C 312.295 240.940,311.930 236.993,311.794 235.030 C 311.658 233.066,311.381 230.546,311.179 229.430 C 310.976 228.313,310.633 225.150,310.416 222.400 C 309.983 216.914,309.511 212.130,308.622 204.200 C 307.659 195.608,306.729 186.830,306.356 182.800 C 305.767 176.445,304.781 167.254,304.174 162.465 C 303.858 159.970,303.597 156.910,303.593 155.665 C 303.589 154.419,303.336 151.870,303.030 150.000 C 302.724 148.130,302.355 144.890,302.209 142.800 C 302.064 140.710,301.778 137.650,301.573 136.000 C 301.369 134.350,300.940 130.120,300.621 126.600 C 300.301 123.080,299.776 118.040,299.453 115.400 C 299.130 112.760,298.575 107.450,298.219 103.600 C 297.863 99.750,297.392 95.464,297.172 94.076 C 296.951 92.687,296.684 90.077,296.577 88.276 C 296.337 84.229,295.224 73.495,294.849 71.605 C 294.358 69.132,295.160 69.199,267.205 69.304 L 241.811 69.400 241.284 70.500 C 240.753 71.608,237.617 83.593,235.239 93.600 C 233.852 99.438,232.093 106.479,230.591 112.200 C 230.071 114.180,228.006 122.460,226.002 130.600 C 223.998 138.740,221.897 147.200,221.332 149.400 C 220.768 151.600,220.166 154.030,219.995 154.800 C 219.356 157.674,216.776 167.872,216.199 169.800 C 215.870 170.900,215.426 172.610,215.212 173.600 C 214.588 176.491,213.739 180.075,213.269 181.800 C 212.774 183.619,209.783 195.600,205.579 212.600 C 201.104 230.695,201.391 230.539,197.846 216.800 C 196.626 212.070,195.258 206.580,194.806 204.600 C 193.829 200.316,194.138 201.554,191.208 190.200 C 189.903 185.140,188.749 180.640,188.645 180.200 C 187.635 175.925,185.250 166.245,184.013 161.400 C 183.171 158.100,182.180 154.140,181.812 152.600 C 181.444 151.060,179.430 142.960,177.336 134.600 C 175.243 126.240,173.168 117.870,172.727 116.000 C 172.285 114.130,171.774 111.970,171.592 111.200 C 166.272 88.715,161.110 69.805,160.198 69.455 C 158.395 68.763,109.306 69.185,108.456 69.900 " stroke="none" fill="#446497" fill-rule="evenodd"></path><path id="path0" d="M19.200 21.600 L 17.800 21.800 17.800 205.200 L 17.800 388.600 201.200 388.600 L 384.600 388.600 384.700 205.263 C 384.796 30.899,384.767 21.917,384.100 21.747 C 383.128 21.499,20.929 21.353,19.200 21.600 M160.198 69.455 C 161.110 69.805,166.272 88.715,171.592 111.200 C 171.774 111.970,172.285 114.130,172.727 116.000 C 173.168 117.870,175.243 126.240,177.336 134.600 C 179.430 142.960,181.444 151.060,181.812 152.600 C 182.180 154.140,183.171 158.100,184.013 161.400 C 185.250 166.245,187.635 175.925,188.645 180.200 C 188.749 180.640,189.903 185.140,191.208 190.200 C 194.138 201.554,193.829 200.316,194.806 204.600 C 195.258 206.580,196.626 212.070,197.846 216.800 C 201.391 230.539,201.104 230.695,205.579 212.600 C 209.783 195.600,212.774 183.619,213.269 181.800 C 213.739 180.075,214.588 176.491,215.212 173.600 C 215.426 172.610,215.870 170.900,216.199 169.800 C 216.776 167.872,219.356 157.674,219.995 154.800 C 220.166 154.030,220.768 151.600,221.332 149.400 C 221.897 147.200,223.998 138.740,226.002 130.600 C 228.006 122.460,230.071 114.180,230.591 112.200 C 232.093 106.479,233.852 99.438,235.239 93.600 C 237.617 83.593,240.753 71.608,241.284 70.500 L 241.811 69.400 267.205 69.304 C 295.160 69.199,294.358 69.132,294.849 71.605 C 295.224 73.495,296.337 84.229,296.577 88.276 C 296.684 90.077,296.951 92.687,297.172 94.076 C 297.392 95.464,297.863 99.750,298.219 103.600 C 298.575 107.450,299.130 112.760,299.453 115.400 C 299.776 118.040,300.301 123.080,300.621 126.600 C 300.940 130.120,301.369 134.350,301.573 136.000 C 301.778 137.650,302.064 140.710,302.209 142.800 C 302.355 144.890,302.724 148.130,303.030 150.000 C 303.336 151.870,303.589 154.419,303.593 155.665 C 303.597 156.910,303.858 159.970,304.174 162.465 C 304.781 167.254,305.767 176.445,306.356 182.800 C 306.729 186.830,307.659 195.608,308.622 204.200 C 309.511 212.130,309.983 216.914,310.416 222.400 C 310.633 225.150,310.976 228.313,311.179 229.430 C 311.381 230.546,311.658 233.066,311.794 235.030 C 311.930 236.993,312.295 240.940,312.606 243.800 C 312.918 246.660,313.628 253.500,314.185 259.000 C 314.743 264.500,315.379 270.218,315.599 271.707 C 316.594 278.426,317.665 278.000,299.774 278.000 C 290.625 278.000,284.863 277.848,284.387 277.593 C 283.297 277.010,282.796 274.689,282.398 268.361 C 282.205 265.302,281.955 262.651,281.843 262.469 C 281.730 262.287,281.443 259.722,281.204 256.769 C 280.966 253.816,280.593 250.051,280.376 248.402 C 280.158 246.752,279.715 242.522,279.391 239.002 C 279.066 235.481,278.448 229.270,278.017 225.200 C 277.585 221.130,277.033 215.730,276.789 213.200 C 276.545 210.670,276.087 206.620,275.770 204.200 C 275.453 201.780,275.195 198.720,275.195 197.400 C 275.195 196.080,274.946 193.290,274.640 191.200 C 274.335 189.110,273.968 185.870,273.825 184.000 C 273.682 182.130,273.402 179.160,273.203 177.400 C 272.477 170.992,272.008 166.466,271.398 160.000 C 271.055 156.370,270.587 151.780,270.356 149.800 C 270.125 147.820,269.693 143.680,269.395 140.600 C 268.285 129.121,267.980 126.064,267.403 120.600 C 267.077 117.520,266.708 113.985,266.582 112.745 C 266.077 107.762,264.789 108.216,263.269 113.911 C 261.601 120.166,261.289 121.330,259.816 126.800 C 259.016 129.770,257.203 136.700,255.788 142.200 C 254.373 147.700,252.758 153.820,252.199 155.800 C 251.641 157.780,250.656 161.470,250.012 164.000 C 247.351 174.445,245.862 180.106,244.329 185.600 C 243.439 188.790,242.564 192.120,242.385 193.000 C 242.206 193.880,241.670 196.040,241.194 197.800 C 238.865 206.416,236.440 215.542,234.551 222.800 C 233.778 225.770,232.596 230.270,231.925 232.800 C 230.539 238.028,228.380 246.223,226.078 255.000 C 225.212 258.300,223.831 263.520,223.009 266.600 C 222.187 269.680,221.282 273.164,220.999 274.343 C 220.115 278.027,221.401 277.773,202.486 278.000 C 180.972 278.258,182.441 278.655,180.781 272.126 C 180.176 269.747,179.043 265.370,178.264 262.400 C 175.774 252.916,173.542 244.327,172.390 239.800 C 171.274 235.416,169.422 228.362,168.188 223.800 C 166.732 218.419,165.102 212.140,164.918 211.200 C 164.810 210.650,163.925 207.230,162.952 203.600 C 161.979 199.970,160.929 196.010,160.619 194.800 C 160.309 193.590,159.684 191.250,159.231 189.600 C 158.779 187.950,157.968 184.890,157.431 182.800 C 156.894 180.710,156.060 177.560,155.579 175.800 C 155.098 174.040,154.198 170.530,153.578 168.000 C 151.614 159.978,149.608 152.261,149.002 150.400 C 148.680 149.410,147.439 144.730,146.244 140.000 C 145.050 135.270,143.502 129.240,142.805 126.600 C 142.108 123.960,141.172 120.270,140.725 118.400 C 138.142 107.593,136.881 106.635,136.016 114.820 C 135.772 117.119,135.316 120.890,135.002 123.200 C 134.688 125.510,134.230 129.650,133.984 132.400 C 133.738 135.150,133.295 139.740,133.000 142.600 C 132.705 145.460,132.264 149.870,132.019 152.400 C 131.775 154.930,131.308 159.340,130.981 162.200 C 130.654 165.060,129.935 172.080,129.384 177.800 C 128.832 183.520,128.212 189.142,128.005 190.293 C 127.799 191.444,127.527 194.054,127.401 196.093 C 127.276 198.132,126.911 202.140,126.590 205.000 C 125.726 212.717,125.221 217.539,124.602 224.000 C 123.687 233.554,123.196 238.403,122.758 242.200 C 122.529 244.180,122.106 248.230,121.817 251.200 C 119.865 271.288,119.214 276.301,118.437 277.225 C 117.834 277.944,117.003 277.987,102.819 278.036 L 87.838 278.087 87.077 277.148 C 86.481 276.411,86.358 275.776,86.509 274.204 C 86.862 270.529,88.009 260.258,88.609 255.400 C 88.935 252.760,89.206 249.610,89.211 248.400 C 89.216 247.190,89.397 245.431,89.614 244.491 C 89.831 243.551,90.268 239.861,90.587 236.291 C 91.415 226.996,92.530 215.882,93.805 204.200 C 94.117 201.340,94.570 196.660,94.810 193.800 C 95.051 190.940,95.409 187.877,95.605 186.994 C 95.801 186.110,96.151 182.780,96.382 179.594 C 96.614 176.407,96.894 173.440,97.005 173.000 C 97.116 172.560,97.478 169.230,97.809 165.600 C 98.750 155.295,99.144 151.388,99.787 146.000 C 100.115 143.250,100.741 137.400,101.179 133.000 C 101.616 128.600,102.153 123.200,102.372 121.000 C 102.591 118.800,102.950 115.380,103.170 113.400 C 103.391 111.420,103.850 106.830,104.190 103.200 C 104.531 99.570,105.081 94.440,105.413 91.800 C 105.745 89.160,106.013 86.278,106.008 85.395 C 105.985 80.959,107.622 70.602,108.456 69.900 C 109.306 69.185,158.395 68.763,160.198 69.455 M291.374 303.045 C 293.011 303.673,293.200 305.347,293.200 319.195 C 293.200 330.335,293.308 332.872,293.869 334.979 C 295.117 339.662,292.608 341.688,288.453 339.352 L 286.499 338.253 284.549 339.479 C 277.719 343.773,271.422 339.389,270.645 329.800 C 269.854 320.039,274.430 313.884,282.006 314.519 C 285.563 314.817,285.600 314.753,285.600 308.246 C 285.600 302.290,286.737 301.266,291.374 303.045 M210.684 304.854 C 214.449 305.403,216.185 306.222,218.118 308.362 C 222.648 313.376,221.630 319.600,216.280 319.600 C 213.712 319.600,213.299 319.233,212.942 316.633 C 212.020 309.905,204.310 309.532,202.311 316.118 C 201.659 318.264,201.684 326.044,202.350 328.345 C 203.886 333.654,208.600 335.051,214.541 331.958 C 218.621 329.835,222.558 334.038,219.310 337.049 C 212.074 343.755,199.183 341.981,195.077 333.714 C 189.124 321.726,194.616 306.572,205.600 304.681 C 207.327 304.384,207.496 304.390,210.684 304.854 M96.839 305.436 C 97.895 305.732,98.398 307.419,101.818 322.121 C 102.589 325.432,103.055 326.213,103.368 324.716 C 104.963 317.090,107.700 306.588,108.258 305.954 C 109.324 304.742,117.258 304.656,118.386 305.844 C 118.700 306.175,118.949 308.689,120.596 328.200 C 121.661 340.822,121.765 340.400,117.606 340.400 C 113.398 340.400,113.574 340.774,113.134 330.901 C 112.428 315.058,112.153 314.548,109.756 324.626 C 107.042 336.040,107.325 335.600,102.688 335.600 C 98.910 335.600,98.639 335.312,97.366 329.939 C 95.459 321.888,94.060 317.200,93.564 317.200 C 93.410 317.200,93.164 320.215,93.016 323.900 C 92.669 332.558,92.158 339.420,91.820 339.967 C 91.665 340.219,90.219 340.400,88.366 340.400 C 84.416 340.400,84.400 340.372,84.826 334.000 C 85.883 318.168,86.967 306.099,87.369 305.698 C 88.097 304.969,94.536 304.792,96.839 305.436 M140.303 314.539 C 145.538 315.897,148.524 320.720,147.803 326.655 C 147.391 330.053,147.166 330.191,141.932 330.259 C 133.727 330.366,134.400 330.253,134.400 331.530 C 134.400 334.192,137.966 335.448,142.106 334.244 C 144.683 333.495,145.408 333.669,146.215 335.229 C 147.756 338.210,145.817 339.770,139.271 340.815 C 130.517 342.212,125.878 337.634,125.878 327.600 C 125.878 317.508,131.639 312.292,140.303 314.539 M240.871 314.975 C 244.556 316.525,245.600 319.316,245.600 327.618 C 245.600 331.971,245.770 334.035,246.252 335.528 C 247.560 339.577,244.899 341.755,241.034 339.800 L 238.800 338.669 236.700 339.718 C 231.277 342.428,225.910 340.846,224.214 336.038 C 222.047 329.899,226.645 324.400,233.944 324.400 C 236.548 324.400,237.200 324.114,237.200 322.973 C 237.200 320.617,234.195 319.773,230.164 320.996 C 226.609 322.074,226.224 321.858,225.038 318.121 C 224.112 315.201,235.858 312.867,240.871 314.975 M314.904 315.060 C 317.182 315.786,317.709 316.571,317.187 318.461 C 316.384 321.370,316.169 321.463,311.940 320.726 C 305.104 319.535,304.564 321.562,310.926 324.535 C 319.384 328.488,320.411 336.458,312.905 339.895 C 307.297 342.462,296.949 340.064,297.989 336.438 C 298.770 333.716,299.855 333.106,302.274 334.030 C 306.224 335.539,309.200 335.267,309.200 333.395 C 309.200 332.250,308.296 331.586,305.142 330.413 C 300.348 328.631,298.400 326.327,298.400 322.439 C 298.400 315.571,305.934 312.203,314.904 315.060 M158.633 315.439 C 159.227 315.858,159.958 316.380,160.259 316.600 C 160.650 316.886,161.363 316.686,162.766 315.897 C 166.323 313.898,169.763 314.042,172.451 316.304 L 173.682 317.340 176.064 316.030 C 184.053 311.638,187.963 315.159,188.238 326.993 C 188.325 330.737,188.488 335.010,188.600 336.490 C 188.849 339.779,188.042 340.600,184.560 340.600 C 180.621 340.600,180.005 339.127,180.002 329.700 C 180.000 322.380,179.603 321.232,177.265 321.780 C 174.642 322.395,174.400 323.239,174.400 331.773 C 174.400 340.787,174.564 340.434,170.384 340.447 C 166.469 340.459,166.631 340.827,166.400 331.392 C 166.166 321.824,165.886 321.047,163.019 321.994 C 160.965 322.672,160.800 323.397,160.800 331.750 C 160.800 340.709,160.859 340.579,156.831 340.517 C 155.241 340.493,153.710 340.258,153.385 339.988 C 152.586 339.324,152.506 315.663,153.300 314.846 C 154.000 314.126,157.290 314.492,158.633 315.439 M256.192 315.700 C 257.264 316.415,258.363 317.168,258.633 317.374 C 258.971 317.631,259.591 317.340,260.607 316.448 C 265.618 312.048,270.210 314.574,267.611 320.300 C 266.849 321.978,266.812 322.000,264.793 322.000 C 260.440 322.000,260.000 322.945,260.000 332.300 C 260.000 340.709,260.154 340.400,255.969 340.400 C 251.904 340.400,252.100 340.886,251.929 330.400 C 251.802 322.632,251.682 321.214,251.052 320.045 C 248.919 316.083,252.380 313.157,256.192 315.700 M136.600 319.921 C 134.791 320.287,133.622 322.530,134.567 323.822 C 135.465 325.051,139.771 324.450,139.929 323.074 C 140.164 321.024,138.577 319.520,136.600 319.921 M280.428 321.570 C 277.637 324.558,278.429 333.864,281.513 334.324 C 286.309 335.040,287.673 321.515,282.901 320.560 C 281.800 320.340,281.440 320.487,280.428 321.570 M233.626 330.123 C 230.875 331.078,231.310 334.503,234.209 334.718 C 236.216 334.866,237.155 334.186,237.450 332.368 C 237.845 329.937,236.475 329.133,233.626 330.123 " stroke="none" fill="#7c9cfa" fill-rule="evenodd"></path><path id="path1" d="M0.000 202.800 L 0.000 405.600 200.000 405.600 L 400.000 405.600 400.000 202.800 L 400.000 0.000 200.000 0.000 L 0.000 0.000 0.000 202.800 M384.100 21.747 C 384.767 21.917,384.796 30.899,384.700 205.263 L 384.600 388.600 201.200 388.600 L 17.800 388.600 17.800 205.200 L 17.800 21.800 19.200 21.600 C 20.929 21.353,383.128 21.499,384.100 21.747 M286.300 302.811 C 285.693 303.182,285.600 303.908,285.600 308.246 C 285.600 314.753,285.563 314.817,282.006 314.519 C 274.430 313.884,269.854 320.039,270.645 329.800 C 271.422 339.389,277.719 343.773,284.549 339.479 L 286.499 338.253 288.453 339.352 C 292.608 341.688,295.117 339.662,293.869 334.979 C 293.308 332.872,293.200 330.335,293.200 319.195 C 293.200 302.876,293.262 303.117,288.905 302.605 C 287.831 302.479,286.695 302.569,286.300 302.811 M205.600 304.681 C 194.616 306.572,189.124 321.726,195.077 333.714 C 199.183 341.981,212.074 343.755,219.310 337.049 C 222.558 334.038,218.621 329.835,214.541 331.958 C 208.600 335.051,203.886 333.654,202.350 328.345 C 201.684 326.044,201.659 318.264,202.311 316.118 C 204.310 309.532,212.020 309.905,212.942 316.633 C 213.403 319.993,217.080 320.982,219.631 318.431 C 224.733 313.329,215.877 303.464,207.084 304.454 C 206.818 304.484,206.150 304.586,205.600 304.681 M89.517 305.157 C 86.794 305.556,87.054 304.448,85.772 321.101 C 84.159 342.048,83.938 340.400,88.366 340.400 C 90.219 340.400,91.665 340.219,91.820 339.967 C 92.158 339.420,92.669 332.558,93.016 323.900 C 93.164 320.215,93.410 317.200,93.564 317.200 C 94.060 317.200,95.459 321.888,97.366 329.939 C 98.639 335.312,98.910 335.600,102.688 335.600 C 107.325 335.600,107.042 336.040,109.756 324.626 C 112.153 314.548,112.428 315.058,113.134 330.901 C 113.574 340.774,113.398 340.400,117.606 340.400 C 121.765 340.400,121.661 340.822,120.596 328.200 C 118.949 308.689,118.700 306.175,118.386 305.844 C 117.258 304.656,109.324 304.742,108.258 305.954 C 107.700 306.588,104.963 317.090,103.368 324.716 C 103.055 326.213,102.589 325.432,101.818 322.121 C 98.398 307.419,97.895 305.732,96.839 305.436 C 95.468 305.053,91.307 304.894,89.517 305.157 M133.539 314.555 C 124.619 316.958,122.644 334.399,130.711 339.533 C 135.186 342.381,146.800 340.638,146.800 337.118 C 146.800 334.417,145.097 333.375,142.106 334.244 C 137.966 335.448,134.400 334.192,134.400 331.530 C 134.400 330.253,133.727 330.366,141.932 330.259 C 147.166 330.191,147.391 330.053,147.803 326.655 C 148.843 318.089,141.993 312.278,133.539 314.555 M230.400 314.822 C 224.685 315.899,224.247 316.422,225.853 320.265 C 226.495 321.801,227.146 321.911,230.164 320.996 C 234.195 319.773,237.200 320.617,237.200 322.973 C 237.200 324.114,236.548 324.400,233.944 324.400 C 226.645 324.400,222.047 329.899,224.214 336.038 C 225.910 340.846,231.277 342.428,236.700 339.718 L 238.800 338.669 241.034 339.800 C 244.899 341.755,247.560 339.577,246.252 335.528 C 245.770 334.035,245.600 331.971,245.600 327.618 C 245.600 315.409,242.249 312.589,230.400 314.822 M305.087 314.420 C 295.863 316.693,295.898 326.977,305.142 330.413 C 308.296 331.586,309.200 332.250,309.200 333.395 C 309.200 335.267,306.224 335.539,302.274 334.030 C 299.855 333.106,298.770 333.716,297.989 336.438 C 297.513 338.098,298.455 339.058,301.515 340.028 C 316.327 344.725,324.686 330.965,310.926 324.535 C 304.564 321.562,305.104 319.535,311.940 320.726 C 315.570 321.359,315.697 321.355,316.244 320.607 C 317.127 319.399,317.621 317.186,317.187 316.376 C 316.369 314.846,308.512 313.576,305.087 314.420 M153.300 314.846 C 152.506 315.663,152.586 339.324,153.385 339.988 C 153.710 340.258,155.241 340.493,156.831 340.517 C 160.859 340.579,160.800 340.709,160.800 331.750 C 160.800 323.397,160.965 322.672,163.019 321.994 C 165.886 321.047,166.166 321.824,166.400 331.392 C 166.631 340.827,166.469 340.459,170.384 340.447 C 174.564 340.434,174.400 340.787,174.400 331.773 C 174.400 323.239,174.642 322.395,177.265 321.780 C 179.603 321.232,180.000 322.380,180.002 329.700 C 180.005 339.127,180.621 340.600,184.560 340.600 C 188.042 340.600,188.849 339.779,188.600 336.490 C 188.488 335.010,188.325 330.737,188.238 326.993 C 187.963 315.159,184.053 311.638,176.064 316.030 L 173.682 317.340 172.451 316.304 C 169.763 314.042,166.323 313.898,162.766 315.897 C 161.363 316.686,160.650 316.886,160.259 316.600 C 158.047 314.982,157.338 314.658,155.677 314.505 C 154.468 314.393,153.622 314.515,153.300 314.846 M251.676 315.319 C 250.412 316.664,250.180 318.425,251.052 320.045 C 251.682 321.214,251.802 322.632,251.929 330.400 C 252.100 340.886,251.904 340.400,255.969 340.400 C 260.154 340.400,260.000 340.709,260.000 332.300 C 260.000 322.945,260.440 322.000,264.793 322.000 C 266.812 322.000,266.849 321.978,267.611 320.300 C 270.210 314.574,265.618 312.048,260.607 316.448 C 259.591 317.340,258.971 317.631,258.633 317.374 C 254.628 314.326,253.048 313.859,251.676 315.319 M139.455 321.028 C 140.781 323.052,140.079 324.186,137.411 324.323 C 134.746 324.459,133.970 323.936,134.298 322.223 C 134.773 319.739,138.104 318.966,139.455 321.028 M284.795 321.422 C 286.566 323.191,285.612 332.760,283.558 333.822 C 280.062 335.629,277.959 331.404,278.976 324.618 C 279.510 321.057,282.684 319.314,284.795 321.422 M237.012 330.270 C 237.851 331.109,237.547 333.557,236.509 334.316 C 234.407 335.855,231.336 334.060,231.971 331.663 C 232.424 329.951,235.769 329.027,237.012 330.270 " stroke="none" fill="#fafbfb" fill-rule="evenodd"></path><path id="path2" d="M108.456 69.900 C 107.622 70.602,105.985 80.959,106.008 85.395 C 106.013 86.278,105.745 89.160,105.413 91.800 C 105.081 94.440,104.531 99.570,104.190 103.200 C 103.850 106.830,103.391 111.420,103.170 113.400 C 102.950 115.380,102.591 118.800,102.372 121.000 C 102.153 123.200,101.616 128.600,101.179 133.000 C 100.741 137.400,100.115 143.250,99.787 146.000 C 99.144 151.388,98.750 155.295,97.809 165.600 C 97.478 169.230,97.116 172.560,97.005 173.000 C 96.894 173.440,96.614 176.407,96.382 179.594 C 96.151 182.780,95.801 186.110,95.605 186.994 C 95.409 187.877,95.051 190.940,94.810 193.800 C 94.570 196.660,94.117 201.340,93.805 204.200 C 92.530 215.882,91.415 226.996,90.587 236.291 C 90.268 239.861,89.831 243.551,89.614 244.491 C 89.397 245.431,89.216 247.190,89.211 248.400 C 89.206 249.610,88.935 252.760,88.609 255.400 C 88.009 260.258,86.862 270.529,86.509 274.204 C 86.358 275.776,86.481 276.411,87.077 277.148 L 87.838 278.087 102.819 278.036 C 117.003 277.987,117.834 277.944,118.437 277.225 C 119.214 276.301,119.865 271.288,121.817 251.200 C 122.106 248.230,122.529 244.180,122.758 242.200 C 123.196 238.403,123.687 233.554,124.602 224.000 C 125.221 217.539,125.726 212.717,126.590 205.000 C 126.911 202.140,127.276 198.132,127.401 196.093 C 127.527 194.054,127.799 191.444,128.005 190.293 C 128.212 189.142,128.832 183.520,129.384 177.800 C 129.935 172.080,130.654 165.060,130.981 162.200 C 131.308 159.340,131.775 154.930,132.019 152.400 C 132.264 149.870,132.705 145.460,133.000 142.600 C 133.295 139.740,133.738 135.150,133.984 132.400 C 134.230 129.650,134.688 125.510,135.002 123.200 C 135.316 120.890,135.772 117.119,136.016 114.820 C 136.881 106.635,138.142 107.593,140.725 118.400 C 141.172 120.270,142.108 123.960,142.805 126.600 C 143.502 129.240,145.050 135.270,146.244 140.000 C 147.439 144.730,148.680 149.410,149.002 150.400 C 149.608 152.261,151.614 159.978,153.578 168.000 C 154.198 170.530,155.098 174.040,155.579 175.800 C 156.060 177.560,156.894 180.710,157.431 182.800 C 157.968 184.890,158.779 187.950,159.231 189.600 C 159.684 191.250,160.309 193.590,160.619 194.800 C 160.929 196.010,161.979 199.970,162.952 203.600 C 163.925 207.230,164.810 210.650,164.918 211.200 C 165.102 212.140,166.732 218.419,168.188 223.800 C 169.422 228.362,171.274 235.416,172.390 239.800 C 173.542 244.327,175.774 252.916,178.264 262.400 C 179.043 265.370,180.176 269.747,180.781 272.126 C 182.441 278.655,180.972 278.258,202.486 278.000 C 221.401 277.773,220.115 278.027,220.999 274.343 C 221.282 273.164,222.187 269.680,223.009 266.600 C 223.831 263.520,225.212 258.300,226.078 255.000 C 228.380 246.223,230.539 238.028,231.925 232.800 C 232.596 230.270,233.778 225.770,234.551 222.800 C 236.440 215.542,238.865 206.416,241.194 197.800 C 241.670 196.040,242.206 193.880,242.385 193.000 C 242.564 192.120,243.439 188.790,244.329 185.600 C 245.862 180.106,247.351 174.445,250.012 164.000 C 250.656 161.470,251.641 157.780,252.199 155.800 C 252.758 153.820,254.373 147.700,255.788 142.200 C 257.203 136.700,259.016 129.770,259.816 126.800 C 261.289 121.330,261.601 120.166,263.269 113.911 C 264.789 108.216,266.077 107.762,266.582 112.745 C 266.708 113.985,267.077 117.520,267.403 120.600 C 267.980 126.064,268.285 129.121,269.395 140.600 C 269.693 143.680,270.125 147.820,270.356 149.800 C 270.587 151.780,271.055 156.370,271.398 160.000 C 272.008 166.466,272.477 170.992,273.203 177.400 C 273.402 179.160,273.682 182.130,273.825 184.000 C 273.968 185.870,274.335 189.110,274.640 191.200 C 274.946 193.290,275.195 196.080,275.195 197.400 C 275.195 198.720,275.453 201.780,275.770 204.200 C 276.087 206.620,276.545 210.670,276.789 213.200 C 277.033 215.730,277.585 221.130,278.017 225.200 C 278.448 229.270,279.066 235.481,279.391 239.002 C 279.715 242.522,280.158 246.752,280.376 248.402 C 280.593 250.051,280.966 253.816,281.204 256.769 C 281.443 259.722,281.730 262.287,281.843 262.469 C 281.955 262.651,282.205 265.302,282.398 268.361 C 282.796 274.689,283.297 277.010,284.387 277.593 C 284.863 277.848,290.625 278.000,299.774 278.000 C 317.665 278.000,316.594 278.426,315.599 271.707 C 315.379 270.218,314.743 264.500,314.185 259.000 C 313.628 253.500,312.918 246.660,312.606 243.800 C 312.295 240.940,311.930 236.993,311.794 235.030 C 311.658 233.066,311.381 230.546,311.179 229.430 C 310.976 228.313,310.633 225.150,310.416 222.400 C 309.983 216.914,309.511 212.130,308.622 204.200 C 307.659 195.608,306.729 186.830,306.356 182.800 C 305.767 176.445,304.781 167.254,304.174 162.465 C 303.858 159.970,303.597 156.910,303.593 155.665 C 303.589 154.419,303.336 151.870,303.030 150.000 C 302.724 148.130,302.355 144.890,302.209 142.800 C 302.064 140.710,301.778 137.650,301.573 136.000 C 301.369 134.350,300.940 130.120,300.621 126.600 C 300.301 123.080,299.776 118.040,299.453 115.400 C 299.130 112.760,298.575 107.450,298.219 103.600 C 297.863 99.750,297.392 95.464,297.172 94.076 C 296.951 92.687,296.684 90.077,296.577 88.276 C 296.337 84.229,295.224 73.495,294.849 71.605 C 294.358 69.132,295.160 69.199,267.205 69.304 L 241.811 69.400 241.284 70.500 C 240.753 71.608,237.617 83.593,235.239 93.600 C 233.852 99.438,232.093 106.479,230.591 112.200 C 230.071 114.180,228.006 122.460,226.002 130.600 C 223.998 138.740,221.897 147.200,221.332 149.400 C 220.768 151.600,220.166 154.030,219.995 154.800 C 219.356 157.674,216.776 167.872,216.199 169.800 C 215.870 170.900,215.426 172.610,215.212 173.600 C 214.588 176.491,213.739 180.075,213.269 181.800 C 212.774 183.619,209.783 195.600,205.579 212.600 C 201.104 230.695,201.391 230.539,197.846 216.800 C 196.626 212.070,195.258 206.580,194.806 204.600 C 193.829 200.316,194.138 201.554,191.208 190.200 C 189.903 185.140,188.749 180.640,188.645 180.200 C 187.635 175.925,185.250 166.245,184.013 161.400 C 183.171 158.100,182.180 154.140,181.812 152.600 C 181.444 151.060,179.430 142.960,177.336 134.600 C 175.243 126.240,173.168 117.870,172.727 116.000 C 172.285 114.130,171.774 111.970,171.592 111.200 C 166.272 88.715,161.110 69.805,160.198 69.455 C 158.395 68.763,109.306 69.185,108.456 69.900 " stroke="none" fill="#446497" fill-rule="evenodd"></path></g></svg>